<svg width="287" height="83" viewBox="0 0 287 83" fill="none" xmlns="http://www.w3.org/2000/svg">
<path fill-rule="evenodd" clip-rule="evenodd" d="M267.855 82.4797V0H287V82.4797H267.855ZM210.237 37.1113C208.663 36.689 207.288 35.6907 206.108 34.1171C204.929 32.5449 204.308 30.1247 204.248 26.8581V82.4797H185.284V62.0253L138.555 65.6027L136.922 42.8277H150.713C148.595 40.8316 147.098 38.0187 146.222 34.3893C145.345 30.7597 144.816 26.5561 144.634 21.7768H129.663V82.4797H110.517V61.7918L69.7764 66.6008V5.11126H105.436V25.7991H88.8312V41.3759L110.517 39.9242V0H129.663V4.9905H181.201V21.7768H176.755C176.512 32.0613 174.516 39.0778 170.766 42.8277H185.284V0H204.248V15.2439C207.241 14.8633 210.004 15.3087 211.99 16.5113C217.314 20.0315 219.502 28.5437 215.772 37.7465C213.653 37.7465 211.809 37.5354 210.237 37.1113ZM162.509 21.7768H158.789V42.8277H162.509V21.7768ZM43.5535 62.1546C38.4114 63.2436 32.3164 64.0149 25.2701 64.4686C18.2225 64.9221 9.79969 65.1801 0 65.2396V32.6654H16.8769V23.0224H0V5.05653H35.1152V38.8355H18.238V45.3684C23.0769 45.1868 27.4165 44.9147 31.2588 44.5518C35.0994 44.1888 39.1983 43.5535 43.5535 42.6464V0H62.5174V82.4797H43.5535V62.1546Z" fill="#01A729"/>
<path fill-rule="evenodd" clip-rule="evenodd" d="M215.597 27.5782C213.224 34.1239 212.236 40.008 212.635 45.2309C213.032 50.4537 214.575 54.8057 217.265 58.2839C219.953 61.7631 223.479 64.2933 227.843 65.8756C232.206 67.4577 236.534 67.7755 240.829 66.8282C245.122 65.8819 249.079 63.5247 252.703 59.76C256.325 55.9948 259.323 50.8399 261.696 44.2942C264.07 37.7487 265.072 31.8699 264.706 26.6582C264.337 21.4463 262.81 17.1016 260.122 13.6223C257.432 10.1441 253.906 7.61271 249.544 6.03065C245.179 4.44833 240.85 4.13173 236.558 5.07806C232.263 6.02539 228.29 8.37525 224.638 12.1294C220.984 15.8828 217.97 21.0328 215.597 27.5782ZM237.138 21.9C238.675 17.6615 240.032 14.5031 241.209 12.4254C242.385 10.349 243.285 9.42201 243.909 9.64823C244.47 9.85186 244.53 11.1434 244.091 13.5232C243.651 15.9029 242.673 19.1823 241.159 23.358C239.644 27.535 238.294 30.6773 237.106 32.7856C235.918 34.8942 235.044 35.8468 234.482 35.6434C233.859 35.4172 233.762 34.1304 234.19 31.7813C234.618 29.4337 235.601 26.14 237.138 21.9Z" fill="#08C55A"/>
</svg>
