<svg width="295" height="77" viewBox="0 0 295 77" fill="none" xmlns="http://www.w3.org/2000/svg">
<path fill-rule="evenodd" clip-rule="evenodd" d="M246.86 10.844C244.913 10.5241 243.339 10.3639 242.139 10.3639C240.671 10.3639 239.618 10.6108 238.977 11.1042C238.337 11.5981 237.883 12.3784 237.617 13.445C237.483 14.0322 237.417 15.2726 237.417 17.1664H245.18V29.0908H237.417V59.6623H221.091V29.0908H215.008V17.1664H221.091V15.2458C221.091 13.5119 221.277 11.6044 221.651 9.52358C222.024 7.44274 222.724 5.74209 223.752 4.42164C224.778 3.10119 226.219 2.03461 228.073 1.22048C229.927 0.407166 232.641 0 236.216 0C239.07 0 243.219 0.333965 248.661 1.00048L246.86 10.844ZM194.239 17.1664H210.525V59.6623H194.239V17.1664ZM194.239 1.00048H210.525V12.0846H194.239V1.00048ZM180.426 28.1484C179.996 26.8602 168.946 32.143 168.946 32.143L168.908 1.00048H185.354V59.6623H169.016C169.016 59.6623 165.588 38.9849 180.426 28.1484ZM23.849 28.8508C21.7144 28.8508 20.0608 29.7312 18.8872 31.4919C17.2066 33.9728 16.3661 38.6144 16.3661 45.417V59.6623H0V17.1664H15.2458V24.129C16.7126 21.1148 18.2269 19.0409 19.7875 17.9068C21.348 16.7733 23.2752 16.2061 25.5697 16.2061C27.9705 16.2061 30.5978 16.9533 33.4527 18.447L28.4107 30.0512C26.4899 29.251 24.9695 28.8508 23.849 28.8508Z" fill="#01A729"/>
<path fill-rule="evenodd" clip-rule="evenodd" d="M278.14 62.5729C276.22 67.7517 274.26 71.2485 272.26 73.0643C269.434 75.6271 265.127 76.9087 259.341 76.9087C256.994 76.9087 253.368 76.5887 248.461 75.9483L247.182 64.5842C249.527 65.3306 252.14 65.7045 255.018 65.7045C256.937 65.7045 258.49 65.2639 259.676 64.3829C260.862 63.5006 261.868 61.9251 262.694 59.6548L244.861 17.1664H262.046L270.811 45.4569L278.951 17.1664H295L278.14 62.5729ZM173.673 31.1946C172.449 32.0819 171.157 32.9338 169.796 33.752C168.434 34.5701 167.185 35.2879 166.052 35.9048C164.918 36.5228 164.198 36.7909 163.894 36.712C163.833 36.696 163.65 36.6485 163.345 36.5697C163.039 36.4906 162.854 36.3783 162.785 36.2294C162.979 35.9547 163.181 35.5848 163.394 35.1182C164.322 33.0824 164.092 31.2339 162.704 29.5718C160.736 27.2166 159.282 26.003 156.772 25.6577C155.144 25.4339 152.933 25.5068 151.271 25.8733C151.271 25.8741 148.369 26.8695 146.9 29.1513C146.003 30.5451 145.224 31.8854 145.147 32.4331C144.723 35.4638 147.455 38.3628 149.632 40.078C154.318 43.7711 158.621 44.0167 163.29 47.1805C165.174 48.4563 166.807 49.0018 168.207 51.0048C168.509 51.3489 168.82 51.7025 168.981 52.1338C172.991 62.8604 162.954 67.6162 163.29 67.3948C160.151 69.0865 156.784 70.2565 153.284 70.8604C150.972 71.2592 148.632 71.4065 146.283 71.3028C139.698 71.4419 132.326 70.3754 127.177 67.4437C124.841 66.1137 123.099 64.6558 121.781 63.1119C120.92 62.1029 120.305 61.0933 119.634 59.9377L120.256 59.6623H119.248C118.634 58.5688 118.234 57.7354 118.047 57.1613C117.86 56.5881 117.674 55.6878 117.487 54.4604C115.353 56.5149 113.232 57.9818 111.125 58.862C108.244 60.0356 104.896 60.6227 101.081 60.6227C96.0122 60.6227 92.164 59.4492 89.5367 57.1013C86.909 54.7542 85.5952 51.8595 85.5952 48.4182C85.5952 45.1907 86.542 42.5358 88.4365 40.4552C90.3302 38.3743 93.8247 36.8276 98.9204 35.8133C105.029 34.5868 108.99 33.7264 110.805 33.2325C112.619 32.7391 114.539 32.0921 116.567 31.2917C116.567 29.291 116.153 27.8904 115.326 27.0901C114.499 26.2898 113.046 25.8897 110.965 25.8897C108.297 25.8897 106.296 26.3167 104.963 27.1702C103.922 27.8373 103.082 29.0908 102.442 30.9316L86.8757 29.291C87.4624 26.57 88.3095 24.4291 89.4167 22.8686C90.5234 21.3081 92.1178 19.9544 94.1984 18.8071C95.6923 17.9806 97.7461 17.3402 100.361 16.8864C102.975 16.433 105.803 16.2061 108.844 16.2061C113.726 16.2061 117.647 16.4799 120.608 17.0263C123.57 17.5734 126.037 18.714 128.011 20.4477C129.398 21.6481 130.492 23.3487 131.292 25.5496C132.093 27.7503 132.31 29.8512 132.31 31.852V50.6189C132.31 52.6197 132.619 54.1871 132.873 55.3208C133.123 56.4397 133.666 57.8637 134.5 59.5928C134.908 60.1891 135.386 60.7826 135.942 61.367C137.046 62.5277 138.752 63.4844 140.2 64.2058C144.479 65.4567 148.829 65.6702 152.163 63.5975C153.701 62.6414 154.537 61.4112 154.799 60.7587C155.202 59.7586 155.412 58.2967 154.799 56.9061C154.296 55.7632 153.459 55.1158 152.772 54.6756C150.407 53.1613 147.679 52.6093 145.585 51.9081C143.433 51.1875 141.538 50.0065 139.748 48.785C133.413 44.4619 132.53 35.8038 138.747 28.4036C140.907 26.8818 143.947 24.5812 146.776 23.6872C149.603 22.7942 152.632 22.2449 155.861 22.0403C159.09 21.8371 162.229 22.1291 165.279 22.9193C166.193 23.1563 167.22 23.5201 168.36 24.0106C169.5 24.5013 170.605 25.0318 171.674 25.6017C172.744 26.1715 173.721 26.7178 174.608 27.2401C175.494 27.7627 176.141 28.1743 176.551 28.4758C176.672 28.5073 176.535 28.7323 176.14 29.1498C175.717 29.6262 174.895 30.3083 173.673 31.1946ZM116.567 39.4949C114.326 40.295 111.991 41.0023 109.564 41.6156C106.256 42.4959 104.162 43.3631 103.282 44.2166C102.375 45.0968 101.921 46.0973 101.921 47.2176C101.921 48.4981 102.368 49.5454 103.262 50.3588C104.155 51.1729 105.469 51.5792 107.203 51.5792C109.017 51.5792 110.705 51.1392 112.265 50.2588C113.826 49.3786 114.932 48.3051 115.587 47.0376C116.24 45.7708 116.567 44.1233 116.567 42.0958V39.4949ZM51.2208 48.298C52.7947 50.1387 54.8486 51.0591 57.3832 51.0591C58.9837 51.0591 60.5043 50.6591 61.945 49.8587C62.8252 49.3522 63.7717 48.4582 64.786 47.1777L80.8319 48.6581C78.3772 52.9267 75.4161 55.9879 71.9487 57.8416C68.4805 59.6954 63.5055 60.6227 57.0231 60.6227C51.3941 60.6227 46.9656 59.8286 43.7381 58.2417C40.51 56.655 37.8358 54.134 35.715 50.6789C33.5942 47.2245 32.5339 43.163 32.5339 38.4944C32.5339 31.852 34.661 26.4769 38.9162 22.3683C43.1709 18.2606 49.0462 16.2061 56.5429 16.2061C62.6251 16.2061 67.4269 17.1265 70.9482 18.9671C74.4696 20.8078 77.1506 23.4757 78.9912 26.9701C80.8319 30.4652 81.7523 35.0132 81.7523 40.6152V42.4559H49.1C49.3934 45.0707 50.1005 47.0177 51.2208 48.298ZM65.1861 34.6529C64.8659 31.5056 64.0187 29.251 62.6451 27.8904C61.2709 26.53 59.4638 25.8497 57.223 25.8497C54.6352 25.8497 52.5676 26.877 51.0208 28.9309C50.0335 30.2114 49.4064 32.119 49.1401 34.6529H65.1861Z" fill="#08C55A"/>
</svg>
