<svg width="402" height="229" viewBox="0 0 402 229" fill="none" xmlns="http://www.w3.org/2000/svg">
<g filter="url(#filter0_i_36_1234)">
<g clip-path="url(#clip0_36_1234)">
<rect x="-31.056" y="77.8162" width="149.151" height="61.0323" rx="30.5162" transform="rotate(23.8252 -31.056 77.8162)" fill="#C9D84D"/>
<path d="M7.52335 113.992C13.221 116.507 15.8575 119.463 14.6689 122.229C13.5583 124.67 10.2562 124.955 5.46655 123.15L4.82854 124.594L14.4791 128.856L13.2632 131.609L-9.36371 121.618L-8.14788 118.864L1.39361 123.078L2.03162 121.633C-2.47642 119.3 -4.47674 116.674 -3.40535 114.248C-2.18952 111.494 1.79846 111.464 7.52335 113.992ZM6.39178 116.554C2.73875 114.941 0.726005 114.704 0.247671 115.861C-0.309263 117.048 1.24604 118.321 4.89907 119.935C8.57935 121.56 10.5408 121.839 11.0704 120.64C11.576 119.495 10.0721 118.179 6.39178 116.554ZM9.90793 131.757L7.11511 138.081L-6.7064 131.978L-7.36849 133.477L7.1073 139.869L5.95165 142.487L-11.9318 134.59L-9.04269 128.047L4.75156 134.138L5.32939 132.83L-8.49213 126.726L-7.34852 124.136L9.90793 131.757ZM39.8372 128L28.8585 152.862L25.3963 151.333L36.375 126.471L39.8372 128ZM31.2346 126.677L27.0092 136.246L18.8308 132.634L16.8205 137.187C20.6022 138.841 23.9153 140.043 27.8135 141.064L26.8735 144.004C22.4713 142.907 18.7188 141.446 14.1934 139.448L11.958 138.461L16.4481 128.292L24.6811 131.927L26.4507 127.92L18.1905 124.273L19.4304 121.465L31.2346 126.677ZM56.0975 157.854L54.8456 160.689L32.1369 150.661L33.3888 147.826L56.0975 157.854ZM46.9575 133.034L45.1398 137.15L55.9625 141.929L57.7803 137.813L61.2425 139.342L55.392 152.591L37.6176 144.742L43.4681 131.493L46.9575 133.034ZM42.3108 143.556L53.1336 148.336L54.7708 144.628L43.948 139.849L42.3108 143.556Z" fill="white"/>
</g>
</g>
<g filter="url(#filter1_i_36_1234)">
<g clip-path="url(#clip1_36_1234)">
<rect x="116.947" y="108.332" width="160.507" height="61.0323" rx="30.5162" transform="rotate(23.8252 116.947 108.332)" fill="#C9D84D"/>
<path d="M128.377 152.424C133.736 152.054 139.751 150.605 145.155 148.365L132.315 142.695L133.699 139.56L148.502 146.097L150.151 142.362L153.641 143.903L151.991 147.638L157.007 149.853L155.623 152.988L150.607 150.773L145.599 162.113C143.805 166.175 143.095 166.383 138.488 164.348C137.206 163.783 136.016 163.159 134.246 162.15L135.782 159.114C137.373 160.012 138.661 160.711 139.506 161.084C141.278 161.867 141.556 161.827 142.11 160.572L145.998 151.767C140.327 154.133 134.578 155.569 128.912 156.081L128.377 152.424ZM155.166 167.804C165.088 171.892 169.413 170.805 172.675 163.417L176.262 155.293L180.106 156.99L176.555 165.032C172.354 174.547 165.995 176.332 154.146 171.295L155.166 167.804ZM156.348 160.996L161.705 148.865L165.549 150.562L160.192 162.693L156.348 160.996ZM180.106 171.878L181.527 168.661L201.591 177.521L200.171 180.738L180.106 171.878ZM202.526 188.521C212.565 192.531 219.633 190.505 224.007 182.37L207.105 174.906L208.597 171.526L225.254 178.881C225.263 177.827 225.222 176.814 225.131 175.765L227.861 175.928C227.987 177.303 227.998 178.643 227.926 180.061L228.961 180.518L228.509 182.208C223.377 193.754 214.108 197.187 201.669 192.085L202.526 188.521ZM229.252 183.253C229.571 180.983 229.645 179.191 229.55 177.194L232.204 177.454C232.33 179.53 232.219 181.403 231.886 183.634L229.252 183.253Z" fill="white"/>
</g>
</g>
<g filter="url(#filter2_i_36_1234)">
<g clip-path="url(#clip2_36_1234)">
<rect x="25.3989" width="114.12" height="61.0323" rx="30.5162" transform="rotate(23.8252 25.3989 0)" fill="#C9D84D"/>
<path d="M60.5705 35.2242L59.4389 37.7867L56.849 36.6431L55.8379 38.9331L58.8366 40.2572L57.705 42.8198L56.8054 42.4226L55.4331 45.5304C58.2094 43.0425 60.943 38.5487 62.7701 35.1856L65.246 36.7349C64.4171 38.0955 63.4992 39.5471 62.5268 40.9746L67.0249 42.9609L65.9295 45.4417L65.0299 45.0444C62.9588 48.8861 60.8908 52.0939 58.5864 54.5458C58.5705 56.7215 58.8825 58.7813 59.6871 60.5374C58.9765 60.7448 57.5953 61.438 56.9761 61.8813C56.3824 60.3486 56.0939 58.6412 56.0412 56.8425C54.5356 58.002 52.9158 58.8667 51.1213 59.4263C51.008 58.8713 50.6816 57.7661 50.3651 57.0074L49.6428 58.6431L47.1893 57.5597L48.7422 54.0429C46.4974 53.5566 44.2918 53.0551 42.4299 52.6238L43.1005 49.6297L45.0506 50.2302L49.8538 39.3529L49.0359 38.9917L50.1675 36.4292L53.1662 37.7533L54.1774 35.4634L51.4786 34.2716L52.6101 31.7091L60.5705 35.2242ZM49.8942 36.0153L48.6904 38.7414L46.5912 37.8145L46.0134 39.123C46.2267 40.3737 46.6549 44.1625 46.7115 45.0671L44.4608 46.5491C44.5401 45.558 44.5619 43.9225 44.5568 42.4217L39.3925 54.1168L36.8027 52.9732L41.0521 43.3499C39.6309 45.019 38.1986 46.4552 36.9345 47.363C36.9869 46.5065 36.908 45.136 36.7759 44.3284C39.0675 42.8645 41.9146 39.6261 43.9469 36.6468L41.3843 35.5152L42.5881 32.7891L45.2052 33.9447L47.6249 28.4652L50.2147 29.6088L47.795 35.0884L49.8942 36.0153ZM47.6758 50.9985L49.8136 51.6167L50.6923 49.6266L48.675 48.7358L47.6758 50.9985ZM49.638 46.5549L51.6554 47.4457L52.5341 45.4556L50.5168 44.5648L49.638 46.5549ZM51.5039 42.3294L53.5213 43.2202L54.3519 41.3391L52.3345 40.4483L51.5039 42.3294ZM50.5697 56.544C52.6742 55.9095 54.5066 54.7478 56.1835 53.1264C56.3967 51.1682 56.7703 49.2156 57.2288 47.3658C56.7759 47.8011 56.2943 48.191 55.8306 48.5401C55.6841 47.9867 55.3761 46.9874 55.096 46.2937L50.5697 56.544ZM60.4489 43.836C59.8829 45.671 59.3598 47.7041 59.0259 49.7882C60.2382 48.0757 61.3848 46.1061 62.5218 43.9369L60.9134 43.2267L60.4489 43.836ZM87.8258 48.0072L94.358 50.8917L93.187 53.5437L86.6547 50.6592L87.8258 48.0072ZM88.3573 44.8393L91.0542 46.664C90.4654 47.4937 89.7962 48.3546 89.0464 49.2467C88.3049 50.1202 87.5333 50.9359 86.7315 51.6939C85.9567 52.4414 85.1577 53.0672 84.3347 53.5711C84.152 53.179 83.9031 52.7355 83.5879 52.2405C83.281 51.7269 82.997 51.3124 82.736 50.997C83.462 50.5615 84.164 50.0041 84.842 49.325C85.5282 48.6272 86.1668 47.8862 86.7577 47.1019C87.3755 46.3072 87.9087 45.553 88.3573 44.8393ZM85.7211 52.8489L88.2383 52.059C88.7937 52.8157 89.3203 53.6376 89.8182 54.5247C90.3161 55.4117 90.6804 56.173 90.9112 56.8087L88.1747 57.8687C87.979 57.2041 87.6445 56.4003 87.1712 55.4574C86.7248 54.5042 86.2415 53.6347 85.7211 52.8489ZM78.6865 42.0367L81.4222 43.2447L77.5023 52.1219L74.7665 50.9138L78.6865 42.0367ZM78.0368 64.4339L80.8563 65.6789L79.7346 68.2192C79.5949 68.5356 79.5644 68.7557 79.6432 68.8794C79.722 69.0031 79.9475 69.1472 80.3197 69.3116C80.3941 69.3444 80.5244 69.402 80.7105 69.4841C80.9152 69.5745 81.1385 69.6732 81.3805 69.78C81.6224 69.8868 81.8457 69.9854 82.0505 70.0758C82.2738 70.1744 82.4413 70.2484 82.5529 70.2977C82.7577 70.3881 82.9323 70.4207 83.0768 70.3956C83.2213 70.3705 83.3749 70.2493 83.5376 70.032C83.7085 69.7961 83.9142 69.431 84.1547 68.9368C84.3248 69.2565 84.6107 69.6163 85.0124 70.0161C85.441 70.4054 85.8301 70.7329 86.1798 70.9986C85.7169 71.7949 85.2711 72.3765 84.8424 72.7431C84.424 73.1366 83.9731 73.3267 83.4897 73.3134C83.0167 73.3269 82.4545 73.1898 81.8032 72.9022C81.6729 72.8447 81.4682 72.7543 81.189 72.631C80.9099 72.5078 80.6121 72.3763 80.2957 72.2366C79.9793 72.0969 79.6816 71.9654 79.4024 71.8421C79.1419 71.727 78.9465 71.6408 78.8162 71.5832C77.9229 71.1888 77.2754 70.7917 76.8737 70.3919C76.472 69.9921 76.2901 69.5226 76.3281 68.9834C76.3578 68.4628 76.5453 67.8117 76.8904 67.03L78.0368 64.4339ZM74.9597 52.6671L88.778 58.7689L84.7964 67.7857L81.7536 66.4421L84.5518 60.1052L76.6796 56.629L73.7335 63.3009L70.8302 62.0189L74.9597 52.6671ZM83.1715 42.6828L85.991 43.9278L81.3068 54.5358L78.4873 53.2907L83.1715 42.6828ZM78.7819 58.5915L81.7689 59.9105C80.9981 61.5049 80.2113 62.8588 79.4083 63.972C78.624 65.0935 77.7141 65.9704 76.6787 66.6029C75.6701 67.2251 74.4254 67.5761 72.9445 67.6561C71.4554 67.7547 69.6475 67.5679 67.5208 67.0959C67.5467 66.6847 67.5083 66.1674 67.4056 65.5438C67.3215 64.9285 67.2015 64.4196 67.0456 64.0171C68.9265 64.4919 70.468 64.7278 71.6702 64.7249C72.8992 64.7116 73.917 64.4716 74.7235 64.0049C75.5569 63.5278 76.2751 62.8331 76.8782 61.9207C77.4998 61.0165 78.1344 59.9068 78.7819 58.5915ZM67.7286 42.6021L75.9637 46.2385L74.6201 49.2813L66.385 45.6449L67.7286 42.6021ZM73.0381 38.2081L76.053 39.5394L64.478 65.7522L61.4632 64.4209L73.0381 38.2081ZM69.7106 46.0459L71.4058 47.495C70.7348 48.5108 70.002 49.5661 69.2073 50.6607C68.4208 51.7367 67.6012 52.787 66.7485 53.8115C65.8958 54.8361 65.0346 55.779 64.1649 56.6404C63.3035 57.4832 62.481 58.1875 61.6974 58.7533C61.7458 58.2409 61.735 57.6357 61.6652 56.9377C61.614 56.2479 61.5496 55.6634 61.472 55.1844C62.1504 54.7056 62.8555 54.1162 63.5871 53.4163C64.3373 52.7246 65.075 51.9606 65.8001 51.1243C66.5438 50.2963 67.241 49.4477 67.8917 48.5786C68.5691 47.6991 69.1754 46.8548 69.7106 46.0459ZM71.9877 48.5192C72.0462 48.7897 72.1175 49.2326 72.2016 49.8479C72.2857 50.4633 72.3637 51.1427 72.4357 51.8862C72.5346 52.6192 72.6126 53.2986 72.6699 53.9244C72.7354 54.5315 72.7829 54.9528 72.8124 55.1882L69.945 57.2246C69.9933 56.7122 70.0146 56.11 70.0088 55.418C70.0298 54.7156 70.0364 53.9958 70.0284 53.2583C70.0473 52.5105 70.0456 51.8093 70.0234 51.1545C70.0011 50.4997 69.9802 49.9679 69.9607 49.5589L71.9877 48.5192Z" fill="white"/>
</g>
</g>
<g filter="url(#filter3_i_36_1234)">
<g clip-path="url(#clip3_36_1234)">
<rect x="130.439" y="117.746" width="149.151" height="61.0323" rx="30.5162" transform="rotate(-26.2073 130.439 117.746)" fill="#C9D84D"/>
<path d="M200.585 117.614C203.691 123.924 201.55 129.495 196.443 132.008C191.283 134.548 185.576 132.807 182.483 126.523C179.377 120.213 181.491 114.656 186.652 112.116C191.758 109.602 197.479 111.304 200.585 117.614ZM196.494 119.627C194.454 115.483 191.397 114.198 188.402 115.672C185.407 117.146 184.534 120.365 186.574 124.51C188.614 128.654 191.698 129.926 194.693 128.452C197.687 126.978 198.534 123.771 196.494 119.627ZM201.216 105.279L210.744 124.637L206.787 126.585L197.259 107.227L201.216 105.279ZM212.45 123.797L205.304 109.279L209.261 107.331L216.407 121.849L212.45 123.797ZM206.348 106.406C205.145 106.999 203.735 106.563 203.195 105.467C202.643 104.344 203.158 102.961 204.361 102.369C205.537 101.79 206.947 102.225 207.5 103.348C208.04 104.444 207.525 105.827 206.348 106.406ZM224.443 99.8582L226.482 116.89L222.044 119.075L209.817 107.057L213.988 105.004L222.169 113.931L222.329 113.852L220.245 101.924L224.443 99.8582ZM238.386 111.396C233.948 113.581 229.799 112.036 227.535 107.437C225.324 102.945 226.591 98.5682 230.842 96.4756C234.666 94.5936 238.845 95.526 241.28 100.472L241.832 101.595L231.913 106.478C232.992 108.671 234.973 109.389 237.005 108.389C238.342 107.731 239.015 106.669 238.982 105.589L242.752 103.734C243.507 106.684 241.969 109.633 238.386 111.396ZM230.689 103.991L236.865 100.951C235.997 99.1867 234.148 98.5354 232.383 99.404C230.565 100.299 229.933 102.287 230.689 103.991Z" fill="white"/>
</g>
</g>
<g filter="url(#filter4_i_36_1234)">
<g clip-path="url(#clip4_36_1234)">
<rect x="244.445" y="9.15485" width="160.385" height="61.0323" rx="30.5162" transform="rotate(15.5424 244.445 9.15485)" fill="#C9D84D"/>
<path d="M285.694 52.6577C283.81 59.4335 278.503 62.1644 273.019 60.6392C267.478 59.0981 264.38 53.9988 266.257 47.2517C268.141 40.4758 273.419 37.737 278.96 39.2781C284.444 40.8033 287.579 45.8818 285.694 52.6577ZM281.301 51.4359C282.539 46.9857 281.114 43.991 277.898 43.0967C274.683 42.2023 271.887 44.0232 270.649 48.4734C269.412 52.9237 270.866 55.9263 274.081 56.8206C277.297 57.715 280.064 55.8862 281.301 51.4359ZM283.401 63.2172L284.314 59.8213L284.831 59.965C286.324 60.3803 287.294 59.2272 288.576 55.2843L290.751 48.4655L302.552 51.7474L298.216 67.3376L294.139 66.2037L297.54 53.9727L293.636 52.8867L292.044 57.6096C290.332 62.7632 287.994 64.4948 284.693 63.5765L283.401 63.2172ZM305.575 63.3216L314.03 54.9399L318.251 56.1137L313.915 71.7039L309.867 70.578L312.645 60.5865L304.182 68.9969L299.961 67.8231L304.297 52.2329L308.346 53.3588L305.575 63.3216ZM315.775 72.2213L320.111 56.6311L326.744 58.4757C330.562 59.5378 332.522 61.7222 331.771 64.4211C331.3 66.115 329.66 66.8962 327.338 66.6833C330.038 67.6508 331.227 69.7138 330.652 71.781C329.918 74.4224 327.289 75.4234 323.441 74.3534L315.775 72.2213ZM324.328 71.1664C325.534 71.5018 326.456 71.0778 326.735 70.0729C327.055 68.9244 326.5 68.0278 325.294 67.6924L321.59 66.6623L320.624 70.1363L324.328 71.1664ZM325.041 64.931C326.362 65.2983 327.305 64.911 327.584 63.9061C327.856 62.9299 327.183 62.1241 325.833 61.7488L323.163 61.0062L322.285 64.1644L325.041 64.931ZM330.613 76.3481L334.949 60.7579L339.199 61.9397L337.506 68.0265L338.855 68.4018L344.711 63.4729L349.736 64.8703L341.97 71.2167L345.457 80.4764L340.375 79.063L337.933 72.3831L336.412 71.9599L334.863 77.5299L330.613 76.3481ZM346.12 75.959C347.086 72.485 350.219 72.1191 353.253 72.7772C354.392 73.0169 356.516 73.4993 357.185 73.6543L357.536 72.391C357.867 71.091 357.192 70.0682 355.613 69.6291C354.177 69.2298 353.075 69.6346 352.55 70.6331L348.502 69.5072C349.511 66.8802 352.456 65.4103 356.59 66.5602C359.978 67.5024 362.771 69.9185 361.725 73.6796L358.802 84.1879L354.782 83.07L355.381 80.9167L355.266 80.8847C354.092 82.1047 352.348 82.7023 350.023 82.0555C347.037 81.2251 345.257 79.0598 346.12 75.959ZM350.228 76.9781C349.893 78.1839 350.694 79.0871 352.043 79.4624C353.967 79.9974 355.704 79.0887 356.131 77.4441L356.45 76.2957C355.796 76.1447 353.959 75.7422 353.207 75.6103C351.703 75.3466 350.564 75.7722 350.228 76.9781Z" fill="white"/>
</g>
</g>
<g filter="url(#filter5_i_36_1234)">
<g clip-path="url(#clip5_36_1234)">
<rect x="291.845" y="115.613" width="171.919" height="61.0323" rx="30.5162" transform="rotate(-11.6076 291.845 115.613)" fill="#C9D84D"/>
<path d="M331.547 149.975L326.818 150.946L329.803 128.307L335.437 127.149L347.076 146.785L342.377 147.75L339.799 143.199L332.151 144.77L331.547 149.975ZM332.559 141.127L337.988 140.012L333.671 132.471L333.525 132.501L332.559 141.127ZM354.347 145.626C349.501 146.621 345.892 143.864 344.897 139.018C343.902 134.173 346.166 130.239 350.983 129.25C355.07 128.41 358.335 130.234 359.253 133.818L355.196 134.652C354.609 133.129 353.366 132.259 351.731 132.595C349.658 133.02 348.646 135.054 349.264 138.061C349.893 141.126 351.596 142.601 353.698 142.17C355.216 141.858 356.162 140.69 356.077 138.943L360.135 138.109C360.668 141.742 358.55 144.763 354.347 145.626ZM369.754 142.461C364.908 143.457 361.283 140.916 360.252 135.895C359.245 130.991 361.574 127.074 366.215 126.121C370.39 125.263 374.199 127.219 375.308 132.62L375.56 133.846L364.73 136.07C365.221 138.464 366.958 139.659 369.176 139.203C370.636 138.903 371.555 138.045 371.795 136.992L375.911 136.146C375.897 139.192 373.666 141.658 369.754 142.461ZM364.172 133.355L370.915 131.97C370.52 130.044 368.895 128.947 366.968 129.343C364.983 129.751 363.87 131.516 364.172 133.355ZM378.177 140.397L374.921 124.546L379.241 123.658L382.497 139.509L378.177 140.397ZM376.656 122.029C375.342 122.299 374.087 121.522 373.841 120.326C373.59 119.1 374.437 117.891 375.75 117.621C377.035 117.358 378.289 118.134 378.541 119.36C378.787 120.557 377.94 121.765 376.656 122.029ZM389.453 121.561L390.118 124.801L387.141 125.413L388.73 133.148C388.988 134.404 389.667 134.599 390.548 134.448C390.986 134.358 391.739 134.173 392.253 134.007L392.954 137.422C392.505 137.606 391.758 137.82 390.678 138.042C387.554 138.683 385.136 137.72 384.535 134.649L382.82 126.3L380.631 126.75L379.965 123.509L382.155 123.06L381.375 119.265L385.696 118.377L386.475 122.172L389.453 121.561ZM402.702 128.331L400.832 119.223L405.152 118.336L408.408 134.187L404.263 135.038L403.675 132.178L403.5 132.214C403.148 134.203 401.707 135.776 399.313 136.268C396.131 136.922 393.509 135.118 392.748 131.41L390.673 121.31L394.993 120.423L396.912 129.764C397.296 131.632 398.622 132.607 400.315 132.259C401.891 131.936 403.146 130.491 402.702 128.331ZM412.708 123.751L414.591 132.917L410.27 133.804L407.014 117.953L411.13 117.108L411.7 119.881L411.875 119.845C412.227 117.856 413.686 116.37 416.022 115.89C419.32 115.213 421.971 117.011 422.704 120.724L424.778 130.824L420.487 131.706L418.568 122.364C418.167 120.409 416.847 119.463 415.066 119.829C413.256 120.2 412.276 121.649 412.708 123.751ZM424.97 126.16C424.245 122.628 426.866 120.873 429.866 120.074C430.989 119.767 433.099 119.228 433.765 119.06L433.501 117.776C433.202 116.468 432.135 115.866 430.529 116.196C429.07 116.496 428.274 117.359 428.262 118.487L424.146 119.333C423.845 116.535 425.795 113.883 429.999 113.019C433.443 112.312 437.03 113.187 437.816 117.011L440.01 127.695L435.924 128.535L435.474 126.346L435.357 126.37C434.869 127.991 433.59 129.319 431.225 129.804C428.189 130.428 425.618 129.313 424.97 126.16ZM429.092 125.192C429.343 126.418 430.468 126.857 431.84 126.575C433.796 126.173 434.927 124.572 434.556 122.914L434.316 121.746C433.665 121.91 431.847 122.39 431.118 122.616C429.659 123.068 428.84 123.966 429.092 125.192Z" fill="white"/>
</g>
</g>
<g filter="url(#filter6_i_36_1234)">
<g clip-path="url(#clip6_36_1234)">
<rect x="412.527" y="3.93597" width="140.23" height="61.0323" rx="30.5162" transform="rotate(27.4689 412.527 3.93597)" fill="#C9D84D"/>
</g>
</g>
<circle cx="195.286" cy="45.0113" r="11.4436" fill="#C9D84D"/>
<defs>
<filter id="filter0_i_36_1234" x="-55.7098" y="77.8162" width="161.095" height="119.132" filterUnits="userSpaceOnUse" color-interpolation-filters="sRGB">
<feFlood flood-opacity="0" result="BackgroundImageFix"/>
<feBlend mode="normal" in="SourceGraphic" in2="BackgroundImageFix" result="shape"/>
<feColorMatrix in="SourceAlpha" type="matrix" values="0 0 0 0 0 0 0 0 0 0 0 0 0 0 0 0 0 0 127 0" result="hardAlpha"/>
<feOffset dy="3.05162"/>
<feGaussianBlur stdDeviation="1.52581"/>
<feComposite in2="hardAlpha" operator="arithmetic" k2="-1" k3="1"/>
<feColorMatrix type="matrix" values="0 0 0 0 1 0 0 0 0 1 0 0 0 0 1 0 0 0 0.25 0"/>
<feBlend mode="normal" in2="shape" result="effect1_innerShadow_36_1234"/>
</filter>
<filter id="filter1_i_36_1234" x="92.2936" y="108.332" width="171.483" height="123.719" filterUnits="userSpaceOnUse" color-interpolation-filters="sRGB">
<feFlood flood-opacity="0" result="BackgroundImageFix"/>
<feBlend mode="normal" in="SourceGraphic" in2="BackgroundImageFix" result="shape"/>
<feColorMatrix in="SourceAlpha" type="matrix" values="0 0 0 0 0 0 0 0 0 0 0 0 0 0 0 0 0 0 127 0" result="hardAlpha"/>
<feOffset dy="3.05162"/>
<feGaussianBlur stdDeviation="1.52581"/>
<feComposite in2="hardAlpha" operator="arithmetic" k2="-1" k3="1"/>
<feColorMatrix type="matrix" values="0 0 0 0 1 0 0 0 0 1 0 0 0 0 1 0 0 0 0.25 0"/>
<feBlend mode="normal" in2="shape" result="effect1_innerShadow_36_1234"/>
</filter>
<filter id="filter2_i_36_1234" x="0.745117" y="0" width="129.049" height="104.981" filterUnits="userSpaceOnUse" color-interpolation-filters="sRGB">
<feFlood flood-opacity="0" result="BackgroundImageFix"/>
<feBlend mode="normal" in="SourceGraphic" in2="BackgroundImageFix" result="shape"/>
<feColorMatrix in="SourceAlpha" type="matrix" values="0 0 0 0 0 0 0 0 0 0 0 0 0 0 0 0 0 0 127 0" result="hardAlpha"/>
<feOffset dy="3.05162"/>
<feGaussianBlur stdDeviation="1.52581"/>
<feComposite in2="hardAlpha" operator="arithmetic" k2="-1" k3="1"/>
<feColorMatrix type="matrix" values="0 0 0 0 1 0 0 0 0 1 0 0 0 0 1 0 0 0 0.25 0"/>
<feBlend mode="normal" in2="shape" result="effect1_innerShadow_36_1234"/>
</filter>
<filter id="filter3_i_36_1234" x="130.439" y="51.8775" width="160.772" height="123.678" filterUnits="userSpaceOnUse" color-interpolation-filters="sRGB">
<feFlood flood-opacity="0" result="BackgroundImageFix"/>
<feBlend mode="normal" in="SourceGraphic" in2="BackgroundImageFix" result="shape"/>
<feColorMatrix in="SourceAlpha" type="matrix" values="0 0 0 0 0 0 0 0 0 0 0 0 0 0 0 0 0 0 127 0" result="hardAlpha"/>
<feOffset dy="3.05162"/>
<feGaussianBlur stdDeviation="1.52581"/>
<feComposite in2="hardAlpha" operator="arithmetic" k2="-1" k3="1"/>
<feColorMatrix type="matrix" values="0 0 0 0 1 0 0 0 0 1 0 0 0 0 1 0 0 0 0.25 0"/>
<feBlend mode="normal" in2="shape" result="effect1_innerShadow_36_1234"/>
</filter>
<filter id="filter4_i_36_1234" x="228.091" y="9.15485" width="170.873" height="104.827" filterUnits="userSpaceOnUse" color-interpolation-filters="sRGB">
<feFlood flood-opacity="0" result="BackgroundImageFix"/>
<feBlend mode="normal" in="SourceGraphic" in2="BackgroundImageFix" result="shape"/>
<feColorMatrix in="SourceAlpha" type="matrix" values="0 0 0 0 0 0 0 0 0 0 0 0 0 0 0 0 0 0 127 0" result="hardAlpha"/>
<feOffset dy="3.05162"/>
<feGaussianBlur stdDeviation="1.52581"/>
<feComposite in2="hardAlpha" operator="arithmetic" k2="-1" k3="1"/>
<feColorMatrix type="matrix" values="0 0 0 0 1 0 0 0 0 1 0 0 0 0 1 0 0 0 0.25 0"/>
<feBlend mode="normal" in2="shape" result="effect1_innerShadow_36_1234"/>
</filter>
<filter id="filter5_i_36_1234" x="291.845" y="81.0221" width="180.683" height="97.4271" filterUnits="userSpaceOnUse" color-interpolation-filters="sRGB">
<feFlood flood-opacity="0" result="BackgroundImageFix"/>
<feBlend mode="normal" in="SourceGraphic" in2="BackgroundImageFix" result="shape"/>
<feColorMatrix in="SourceAlpha" type="matrix" values="0 0 0 0 0 0 0 0 0 0 0 0 0 0 0 0 0 0 127 0" result="hardAlpha"/>
<feOffset dy="3.05162"/>
<feGaussianBlur stdDeviation="1.52581"/>
<feComposite in2="hardAlpha" operator="arithmetic" k2="-1" k3="1"/>
<feColorMatrix type="matrix" values="0 0 0 0 1 0 0 0 0 1 0 0 0 0 1 0 0 0 0.25 0"/>
<feBlend mode="normal" in2="shape" result="effect1_innerShadow_36_1234"/>
</filter>
<filter id="filter6_i_36_1234" x="384.375" y="3.93597" width="152.573" height="121.887" filterUnits="userSpaceOnUse" color-interpolation-filters="sRGB">
<feFlood flood-opacity="0" result="BackgroundImageFix"/>
<feBlend mode="normal" in="SourceGraphic" in2="BackgroundImageFix" result="shape"/>
<feColorMatrix in="SourceAlpha" type="matrix" values="0 0 0 0 0 0 0 0 0 0 0 0 0 0 0 0 0 0 127 0" result="hardAlpha"/>
<feOffset dy="3.05162"/>
<feGaussianBlur stdDeviation="1.52581"/>
<feComposite in2="hardAlpha" operator="arithmetic" k2="-1" k3="1"/>
<feColorMatrix type="matrix" values="0 0 0 0 1 0 0 0 0 1 0 0 0 0 1 0 0 0 0.25 0"/>
<feBlend mode="normal" in2="shape" result="effect1_innerShadow_36_1234"/>
</filter>
<clipPath id="clip0_36_1234">
<rect x="-31.056" y="77.8162" width="149.151" height="61.0323" rx="30.5162" transform="rotate(23.8252 -31.056 77.8162)" fill="white"/>
</clipPath>
<clipPath id="clip1_36_1234">
<rect x="116.947" y="108.332" width="160.507" height="61.0323" rx="30.5162" transform="rotate(23.8252 116.947 108.332)" fill="white"/>
</clipPath>
<clipPath id="clip2_36_1234">
<rect x="25.3989" width="114.12" height="61.0323" rx="30.5162" transform="rotate(23.8252 25.3989 0)" fill="white"/>
</clipPath>
<clipPath id="clip3_36_1234">
<rect x="130.439" y="117.746" width="149.151" height="61.0323" rx="30.5162" transform="rotate(-26.2073 130.439 117.746)" fill="white"/>
</clipPath>
<clipPath id="clip4_36_1234">
<rect x="244.445" y="9.15485" width="160.385" height="61.0323" rx="30.5162" transform="rotate(15.5424 244.445 9.15485)" fill="white"/>
</clipPath>
<clipPath id="clip5_36_1234">
<rect x="291.845" y="115.613" width="171.919" height="61.0323" rx="30.5162" transform="rotate(-11.6076 291.845 115.613)" fill="white"/>
</clipPath>
<clipPath id="clip6_36_1234">
<rect x="412.527" y="3.93597" width="140.23" height="61.0323" rx="30.5162" transform="rotate(27.4689 412.527 3.93597)" fill="white"/>
</clipPath>
</defs>
</svg>
